# xmcd CD database file
#
# Track frame offsets:
#	150
#	14645
#	29767
#	46107
#	56587
#	69235
#	81990
#	97575
#	111687
#	124772
#	138877
#	157160
#	181070
#
# Disc length: 2602 seconds
#
# Revision: 0
# Processed by: cddbd v1.4PL0 Copyright (c) Steve Scherf et al.
# Submitted via: CDex 1.51
#
DISCID=ae0a280d
DTITLE=Steve Phillips - Steel Rail Blues
DYEAR=1990
DGENRE=Blues
TTITLE0=Don't forget it
TTITLE1=Wake up Mary
TTITLE2=Mama 'taint long fo' day
TTITLE3=Gonna bid my blues goodbye
TTITLE4=Running wild
TTITLE5=Hobo's lullaby
TTITLE6=125 express
TTITLE7=Steel rail blues
TTITLE8=Never to return
TTITLE9=Mississippi lowdown
TTITLE10=Will you miss me
TTITLE11=Tennessee blues
TTITLE12=I used to pick piano sometimes
EXTD=YEAR: 1990
EXTT0=
EXTT1=
EXTT2=
EXTT3=
EXTT4=
EXTT5=
EXTT6=
EXTT7=
EXTT8=
EXTT9=
EXTT10=
EXTT11=
EXTT12=
PLAYORDER=
